HIERARCHY
ROOT Hips
{
 OFFSET 0.000000 0.000000 0.000000
 CHANNELS 6 Xposition Yposition Zposition Yrotation Xrotation Zrotation
 JOINT Chest
 {
  OFFSET 0.000000 9.585900 0.002600
  CHANNELS 3 Yrotation Xrotation Zrotation
  JOINT Chest2
  {
   OFFSET 0.000000 9.601200 -0.005300
   CHANNELS 3 Yrotation Xrotation Zrotation
   JOINT Chest3
   {
    OFFSET 0.000000 9.561800 0.000000
    CHANNELS 3 Yrotation Xrotation Zrotation
    JOINT Chest4
    {
     OFFSET 0.000000 9.552100 0.000000
     CHANNELS 3 Yrotation Xrotation Zrotation
     JOINT Neck
     {
      OFFSET 0.000000 14.453000 0.000000
      CHANNELS 3 Yrotation Xrotation Zrotation
      JOINT Head
      {
       OFFSET 0.000000 8.936500 -0.011300
       CHANNELS 3 Yrotation Xrotation Zrotation
       End Site
       {
        OFFSET 0.000000 17.073600 -0.006000
       }
      }
     }
     JOINT RightCollar
     {
      OFFSET -2.921100 9.558500 0.000000
      CHANNELS 3 Yrotation Xrotation Zrotation
      JOINT RightShoulder
      {
       OFFSET -13.519700 0.000000 0.000000
       CHANNELS 3 Yrotation Xrotation Zrotation
       JOINT RightElbow
       {
        OFFSET 0.000000 -29.696600 0.000000
        CHANNELS 3 Yrotation Xrotation Zrotation
        JOINT RightWrist
        {
         OFFSET 0.000000 -24.004700 0.000000
         CHANNELS 3 Yrotation Xrotation Zrotation
         End Site
         {
          OFFSET 0.000000 -17.728500 0.000000
         }
        }
       }
      }
     }
     JOINT LeftCollar
     {
      OFFSET 2.921100 9.558500 0.000000
      CHANNELS 3 Yrotation Xrotation Zrotation
      JOINT LeftShoulder
      {
       OFFSET 13.519700 0.000000 0.000000
       CHANNELS 3 Yrotation Xrotation Zrotation
       JOINT LeftElbow
       {
        OFFSET 0.000000 -29.696600 0.000000
        CHANNELS 3 Yrotation Xrotation Zrotation
        JOINT LeftWrist
        {
         OFFSET 0.000000 -24.004700 0.000000
         CHANNELS 3 Yrotation Xrotation Zrotation
         End Site
         {
          OFFSET 0.000000 -17.728500 0.000000
         }
        }
       }
      }
     }
    }
   }
  }
 }
 JOINT RightHip
 {
  OFFSET -7.771700 -0.012900 -0.001300
  CHANNELS 3 Yrotation Xrotation Zrotation
  JOINT RightKnee
  {
   OFFSET 0.000000 -40.869800 0.001200
   CHANNELS 3 Yrotation Xrotation Zrotation
   JOINT RightAnkle
   {
    OFFSET 0.000000 -39.717900 0.002100
    CHANNELS 3 Yrotation Xrotation Zrotation
    JOINT RightToe
    {
     OFFSET 0.000000 -4.965400 11.033500
     CHANNELS 3 Yrotation Xrotation Zrotation
     End Site
     {
      OFFSET 0.000000 -1.423100 5.872300
     }
    }
   }
  }
 }
 JOINT LeftHip
 {
  OFFSET 7.771700 -0.012900 -0.001300
  CHANNELS 3 Yrotation Xrotation Zrotation
  JOINT LeftKnee
  {
   OFFSET 0.000000 -40.869800 0.001200
   CHANNELS 3 Yrotation Xrotation Zrotation
   JOINT LeftAnkle
   {
    OFFSET 0.000000 -39.717900 0.002100
    CHANNELS 3 Yrotation Xrotation Zrotation
    JOINT LeftToe
    {
     OFFSET 0.000000 -4.965400 11.033500
     CHANNELS 3 Yrotation Xrotation Zrotation
     End Site
     {
      OFFSET 0.000000 -1.423100 5.872300
     }
    }
   }
  }
 }
}
MOTION
Frames: 8
Frame Time: 0.008333
0.000000 85.388000 0.000000 0.000000 -5.767877 0.000000 0.000000 11.653817 0.000000 0.000000 -5.885947 0.000000 0.000000 -0.000000 0.000000 0.000000 -0.000000 0.000000 0.000000 12.528835 0.000000 0.000000 0.711642 0.000000 0.000000 -0.000000 0.000000 0.000000 0.000000 -90.000000 0.000000 -2.309062 0.000000 0.000000 2.309062 0.000000 0.000000 -0.000000 0.000000 0.000000 -0.000000 90.000000 0.000000 -2.309062 0.000000 0.000000 2.309062 0.000000 0.000000 8.520406 0.000000 0.000000 1.905762 0.000000 -0.000000 -4.658285 0.000000 0.000000 -0.000000 0.000000 0.000000 8.520406 0.000000 0.000000 1.905762 0.000000 -0.000000 -4.658285 0.000000 0.000000 -0.000000 0.000000
-165.101899 49.011140 17.806594 177.012270 -31.358384 -3.827737 0.898040 18.390141 2.603768 0.064297 2.115185 0.256674 0.111559 3.497981 0.425982 0.745629 16.052999 2.057890 10.023558 21.982613 -0.943840 18.368888 5.709370 -4.378955 -3.975641 -0.973744 -2.178920 -2.445553 -9.777436 -13.310229 -43.268817 -40.118543 86.263696 1.116299 0.433573 -13.545633 0.102073 -0.455015 2.810333 7.736169 -6.946885 11.615465 65.792626 -42.540507 -92.332226 15.609683 -4.230189 20.993848 -3.627079 -53.595811 -7.595720 -175.962121 83.201204 -163.369362 -30.297862 -3.129197 -3.690924 -0.029205 -11.980503 0.505770 -12.052870 -55.571837 18.245977 -73.743765 65.126581 -79.121786 30.721629 6.512060 16.990862 0.087598 -0.233173 0.031569
-165.098286 49.011655 17.807531 177.011706 -31.345970 -3.845132 0.904508 18.382435 2.618031 0.064553 2.115469 0.257129 0.112036 3.498407 0.426691 0.750295 16.059440 2.059307 9.979256 21.954887 -0.941746 18.290537 5.652672 -4.367707 -3.938655 -0.962680 -2.143972 -2.465881 -9.777285 -13.222408 -43.260814 -40.172220 86.232143 1.121926 0.442504 -13.457664 0.057307 -0.476700 2.775920 7.682869 -6.935223 11.571722 65.760622 -42.600874 -92.337311 15.585603 -4.189748 20.988588 -3.647618 -53.598878 -7.559686 -175.851206 83.208704 -163.253622 -30.303714 -3.151479 -3.701012 -0.009770 -11.958685 0.513944 -12.089259 -55.577449 18.287461 -73.742780 65.124590 -79.122713 30.725031 6.503693 16.996368 0.081400 -0.227269 0.026538
-165.095670 49.012972 17.807085 177.007834 -31.341865 -3.850490 0.910567 18.383681 2.621280 0.064960 2.115811 0.257564 0.112779 3.498804 0.427396 0.753080 16.063555 2.056016 9.948083 21.929845 -0.937019 18.206805 5.589918 -4.355465 -3.914723 -0.955827 -2.113988 -2.467336 -9.768561 -13.118851 -43.268122 -40.242483 86.220313 1.141891 0.463268 -13.395805 0.022688 -0.496420 2.752886 7.612371 -6.925317 11.517471 65.729328 -42.646120 -92.344839 15.566895 -4.161577 20.976668 -3.652366 -53.598365 -7.543095 -175.760260 83.210497 -163.160440 -30.315962 -3.162416 -3.697979 -0.059847 -11.948389 0.525893 -12.109223 -55.574037 18.314751 -73.732744 65.120006 -79.118096 30.725579 6.500156 16.995577 0.079326 -0.224804 0.026664
-165.092673 49.014435 17.806569 177.005206 -31.338077 -3.854183 0.909051 18.394132 2.605134 0.066349 2.116693 0.257415 0.115002 3.500209 0.427220 0.762191 16.056824 2.064710 9.942056 21.913182 -0.927686 18.108392 5.522660 -4.341092 -3.895359 -0.950756 -2.084749 -2.457811 -9.756078 -13.008306 -43.277308 -40.323587 86.206311 1.170761 0.485526 -13.344709 0.015644 -0.509250 2.756375 7.509550 -6.920616 11.436693 65.700384 -42.680614 -92.353368 15.555887 -4.147278 20.959461 -3.656458 -53.598601 -7.528726 -175.692814 83.211657 -163.093230 -30.325799 -3.171096 -3.692802 -0.048216 -11.940648 0.523549 -12.131589 -55.571810 18.342246 -73.725272 65.114636 -79.117861 30.725569 6.500200 16.994194 0.079407 -0.225070 0.026383
-165.088498 49.016039 17.806118 176.999687 -31.334929 -3.858698 0.911713 18.397076 2.603241 0.068281 2.114606 0.259959 0.111270 3.505469 0.421294 0.766320 16.058658 2.062391 9.909906 21.884691 -0.924958 18.043016 5.474709 -4.329402 -3.876980 -0.950886 -2.059701 -2.436088 -9.740080 -12.894030 -43.255496 -40.422926 86.119246 1.181482 0.481500 -13.256756 -0.010113 -0.537666 2.732391 7.419140 -6.903190 11.385162 65.668184 -42.708913 -92.363017 15.553086 -4.148687 20.936157 -3.660648 -53.599917 -7.507263 -175.547477 83.209469 -162.951372 -30.326407 -3.172666 -3.685251 -0.071136 -11.937371 0.527399 -12.152126 -55.568037 18.372779 -73.715205 65.112505 -79.111184 30.720907 6.503776 16.990127 0.081553 -0.227093 0.027353
-165.082737 49.017148 17.806855 176.979051 -31.325885 -3.860561 0.931433 18.389023 2.613246 0.066992 2.117140 0.257145 0.101757 3.509579 0.414133 0.767435 16.060871 2.058921 9.883008 21.860052 -0.923030 17.983106 5.434337 -4.320921 -3.858457 -0.957405 -2.043817 -2.398625 -9.718795 -12.773913 -43.286755 -40.495753 86.181129 1.209823 0.516867 -13.294635 -0.033446 -0.566011 2.705491 7.328793 -6.884140 11.337496 65.632163 -42.730686 -92.376771 15.555891 -4.159376 20.909891 -3.661437 -53.609446 -7.471506 -175.397079 83.210699 -162.803775 -30.335831 -3.171593 -3.680786 -0.064808 -11.934155 0.525993 -12.196884 -55.561892 18.436468 -73.684837 65.108841 -79.101897 30.723455 6.500088 16.990145 0.077147 -0.224980 0.025742
-165.076873 49.019031 17.806386 176.967288 -31.325482 -3.862592 0.932136 18.395250 2.607145 0.046107 2.124838 0.240625 0.128109 3.499121 0.433523 0.753454 16.066541 2.046911 9.861759 21.840879 -0.921300 17.925978 5.401488 -4.314225 -3.818750 -0.953826 -2.020820 -2.368966 -9.708348 -12.664662 -43.284792 -40.568675 86.171366 1.215656 0.529054 -13.284201 -0.048602 -0.598765 2.670706 7.232878 -6.861499 11.302167 65.593036 -42.746353 -92.396199 15.560003 -4.171862 20.887391 -3.661341 -53.603706 -7.442110 -175.240310 83.212573 -162.656922 -30.330278 -3.179573 -3.667020 -0.067224 -11.921808 0.523936 -12.208749 -55.558141 18.460739 -73.684206 65.107404 -79.104598 30.733713 6.501277 16.994661 0.069171 -0.230218 0.020817
